<?xml version="1.0" encoding="utf-8"?>
<!-- Generator: Adobe Illustrator 23.0.0, SVG Export Plug-In . SVG Version: 6.00 Build 0)  -->
<svg version="1.1" id="Layer_1" xmlns="http://www.w3.org/2000/svg" xmlns:xlink="http://www.w3.org/1999/xlink" x="0px" y="0px"
	 viewBox="0 0 576 576" style="enable-background:new 0 0 576 576;" xml:space="preserve">
<style type="text/css">
	.st0{fill:#023359;}
	.st1{fill:#FFFFFF;}
	.st2{fill:#F47C2B;}
</style>
<g>
	<rect x="317" y="217" class="st0" width="82.7" height="82"/>
	<path class="st0" d="M288.8,37.7c-139.2,0-252,112.8-252,252s112.8,252,252,252s252-112.8,252-252S427.9,37.7,288.8,37.7z
		 M456.1,418.9h-56.4V374h32c10.8,0,20.1-6.3,24.4-15.4V418.9z M456.1,321.6c0,18.4-14.6,33.3-32.9,33.8v0h-0.9h-22.6H317v63.5
		h-56.4V217h-82.7v201.9h-56.4V194.4c0-18.7,15.2-33.8,33.8-33.8h15h7.5h82.7H317h82.7H411h11.3c18.7,0,33.8,15.2,33.8,33.8V321.6z"
		/>
	<path class="st1" d="M422.3,160.6H411h-11.3H317h-56.4h-82.7h-7.5h-15c-18.7,0-33.8,15.2-33.8,33.8v224.4h56.4V217h82.7v201.9H317
		v-63.5h82.7h22.6h0.9v0c18.3-0.5,32.9-15.4,32.9-33.8V194.4C456.1,175.7,441,160.6,422.3,160.6z M399.7,299H317v-82h82.7V299z"/>
	<path class="st2" d="M431.7,374h-32v44.9h56.4v-60.2C451.7,367.7,442.4,374,431.7,374z"/>
</g>
</svg>
